<?xml version="1.0" encoding="utf-8"?>

<!-- Generator: Adobe Illustrator 19.0.0, SVG Export Plug-In . SVG Version: 6.00 Build 0)  -->
<svg version="1.1" id="menu-act-00" xmlns="http://www.w3.org/2000/svg" xmlns:xlink="http://www.w3.org/1999/xlink" x="0px" y="0px"
		viewBox="-73 164.9 448 512" style="enable-background:new -73 164.9 448 512;" xml:space="preserve">
		<def>
			<title>Menu Action</title>
			<style>
		 

				@keyframes rotarDesaparecer{
					to{
						transform: rotate(360deg);
						opacity: 0;
					}
				}
				@keyframes rotarAparecer{
					to{
						transform: rotate(360deg);
						opacity: 1;
					}
				}
				.rotar-d{
					animation-name: rotarDesaparecer;
					animation-duration: .4s;
					animation-timing-function: ease-in;
					animation-fill-mode: forwards;
				}
				.rotar-a{
					animation-name: rotarAparecer;
					animation-duration: .4s;
					animation-timing-function: ease-out;
					animation-fill-mode: forwards;
		
				}
				.active{
					opacity:1;
					
				}
		
				path{
					opacity:0;
					transition: .4s;
				}
			</style>
		</def>
		<path id="bars" class="bars active" d="M-57,296.9h416c8.8,0,16-7.2,16-16v-40c0-8.8-7.2-16-16-16H-57c-8.8,0-16,7.2-16,16v40C-73,289.7-65.8,296.9-57,296.9z
			M-57,456.9h416c8.8,0,16-7.2,16-16v-40c0-8.8-7.2-16-16-16H-57c-8.8,0-16,7.2-16,16v40C-73,449.7-65.8,456.9-57,456.9z M-57,616.9
			h416c8.8,0,16-7.2,16-16v-40c0-8.8-7.2-16-16-16H-57c-8.8,0-16,7.2-16,16v40C-73,609.7-65.8,616.9-57,616.9z"/>
		<path id="cross" class="cross" d="M328.5,299.3L204.4,423.4l119.1,119.1c6.3,6.3,6.3,16.4,0,22.6l-28.3,28.3c-6.3,6.3-16.4,6.3-22.6,0L153.5,474.3L34.4,593.4
			c-6.3,6.3-16.4,6.3-22.6,0l-28.3-28.3c-6.3-6.3-6.3-16.4,0-22.6l119.1-119.1L-21.5,299.3c-6.3-6.3-6.3-16.4,0-22.6l28.3-28.3
			c6.3-6.3,16.4-6.3,22.6,0l124.1,124.1l124.1-124.1c6.3-6.3,16.4-6.3,22.6,0l28.3,28.3C334.8,282.9,334.8,293,328.5,299.3z"/>
		<script>
			let flag=false;
			const menuAct = document.getElementById('menu-act-00');
			
			const bars = document.getElementById('bars');
			const cross = document.getElementById('cross');
			menuAct.addEventListener('click',()=>{
			
			if(!flag){

				bars.classList.remove('rotar-a');
				bars.classList.remove('active');
				bars.classList.add('rotar-d');
				
				cross.classList.remove('rotar-d');
				cross.classList.add('rotar-a');
				cross.classList.add('active');				
				flag=!flag;
				
			}else{

				bars.classList.remove('rotar-d');
				bars.classList.add('rotar-a');
				bars.classList.add('active');
				
				cross.classList.remove('rotar-a');	
				cross.classList.remove('active');				

				cross.classList.add('rotar-d');
				flag=!flag;
				
			}
						},false);
			
		</script>
		</svg>
