<?xml version="1.0" encoding="utf-8"?>
<!-- Generator: Adobe Illustrator 16.0.0, SVG Export Plug-In . SVG Version: 6.00 Build 0)  -->
<!DOCTYPE svg PUBLIC "-//W3C//DTD SVG 1.1//EN" "http://www.w3.org/Graphics/SVG/1.1/DTD/svg11.dtd">
<svg version="1.1" id="Capa_1" xmlns="http://www.w3.org/2000/svg" xmlns:xlink="http://www.w3.org/1999/xlink" x="0px" y="0px"
	 width="50px" height="50px" viewBox="0 0 50 50" enable-background="new 0 0 50 50" xml:space="preserve">
<path fill="#6F6F6E" d="M33.616,4.872H16.383c-6.157,0-11.164,5.095-11.164,11.363v17.534c0,6.263,5.007,11.36,11.164,11.36h17.233
	c6.159,0,11.166-5.098,11.166-11.36V16.234C44.782,9.966,39.775,4.872,33.616,4.872z"/>
<g>
	<g>
		<g>
			<path fill="#FFFFFF" d="M31.72,40.633H18.281c-4.798,0-8.704-3.975-8.704-8.859V18.101c0-4.884,3.906-8.859,8.704-8.859H31.72
				c4.801,0,8.705,3.976,8.705,8.859v13.672C40.425,36.658,36.521,40.633,31.72,40.633z M18.281,11.213
				c-3.732,0-6.771,3.088-6.771,6.888v13.672c0,3.798,3.038,6.889,6.771,6.889H31.72c3.733,0,6.771-3.091,6.771-6.889V18.101
				c0-3.8-3.038-6.888-6.771-6.888H18.281z"/>
		</g>
	</g>
	<g>
		<g>
			<path fill="#FFFFFF" d="M25.001,32.572c-4.137,0-7.504-3.423-7.504-7.635c0-4.207,3.367-7.633,7.504-7.633
				c4.138,0,7.505,3.426,7.505,7.633C32.506,29.149,29.139,32.572,25.001,32.572z M25.001,19.271c-3.069,0-5.566,2.542-5.566,5.666
				c0,3.127,2.497,5.667,5.566,5.667s5.568-2.54,5.568-5.667C30.569,21.814,28.07,19.271,25.001,19.271z"/>
		</g>
	</g>
	<g>
		<g>
			<ellipse fill="#FFFFFF" cx="34.137" cy="15.838" rx="1.868" ry="1.902"/>
		</g>
	</g>
</g>
</svg>
