<?xml version="1.0" encoding="utf-8"?>
<!-- Generator: Adobe Illustrator 22.0.0, SVG Export Plug-In . SVG Version: 6.00 Build 0)  -->
<svg version="1.1" id="Capa_1" xmlns="http://www.w3.org/2000/svg" xmlns:xlink="http://www.w3.org/1999/xlink" x="0px" y="0px"
	 viewBox="0 0 701 581" style="enable-background:new 0 0 701 581;" xml:space="preserve">
<style type="text/css">
	.st0{fill:#FFFFFF;}
	.st1{fill:#DA5C80;}
	.st2{fill:#FFB95A;}
	.st3{fill:url(#SVGID_1_);}
	.st4{fill:#FF826F;}
	.st5{fill:#253262;}
	.st6{opacity:0.22;fill:url(#SVGID_2_);}
	.st7{opacity:0.59;fill:url(#SVGID_3_);}
	.st8{fill:#62DCE5;}
	.st9{opacity:0.53;fill:url(#SVGID_4_);}
	.st10{opacity:0.53;fill:url(#SVGID_5_);}
	.st11{opacity:0.59;fill:url(#SVGID_6_);}
	.st12{opacity:0.22;fill:url(#SVGID_7_);}
	.st13{fill:#FBCA8E;}
	.st14{fill:#D3D3D3;}
	.st15{fill:#CD5346;}
	.st16{fill:#FF664E;}
	.st17{fill:#EEAB67;}
	.st18{fill:url(#SVGID_8_);}
	.st19{fill:#A56052;}
	.st20{fill:url(#SVGID_9_);}
	.st21{fill:#643619;}
	.st22{fill:#994D1D;}
	.st23{fill:url(#SVGID_10_);}
	.st24{fill:#F4A29D;}
	.st25{fill:#B06523;}
	.st26{fill:#46271E;}
	.st27{opacity:0.59;fill:url(#SVGID_11_);}
	.st28{opacity:0.22;fill:url(#SVGID_12_);}
</style>
<g>
	<g>
		<polygon class="st0" points="265.9,99.3 253.5,107.2 216.8,130.9 193,146.2 146.1,73.3 216.8,27.7 219,26.4 253.9,80.5 		"/>
		<polygon class="st1" points="255.9,98.8 231.3,114.7 196.3,137.2 174.4,103.2 157.9,77.6 217.5,39.2 		"/>
		<path class="st2" d="M234,80.4l-2.7,34.3l-35,22.5l-21.9-34c1.8-1.1,3.9-1.8,6-2.4c4-1.1,8.1-1.6,12.2-1.7
			c5.5-0.1,10.9,0.8,16.4,0.4c5.4-0.4,11.1-2.4,14.2-6.9c1.7-2.5,2.5-5.5,4.4-7.9C229.1,82.6,231.5,81,234,80.4z"/>
		<path class="st2" d="M216.8,68.7c0,3.2-2.6,5.8-5.8,5.8c-3.2,0-5.8-2.6-5.8-5.8s2.6-5.8,5.8-5.8C214.2,62.9,216.8,65.5,216.8,68.7
			z"/>
	</g>
	<g>
		
			<linearGradient id="SVGID_1_" gradientUnits="userSpaceOnUse" x1="-334.2379" y1="100.6688" x2="-316.3776" y2="99.7606" gradientTransform="matrix(-1 0 0 1 91.2194 0)">
			<stop  offset="5.319150e-03" style="stop-color:#DA5C80;stop-opacity:0"/>
			<stop  offset="1" style="stop-color:#DA5C80;stop-opacity:0.97"/>
			<stop  offset="1" style="stop-color:#9EEEFF"/>
		</linearGradient>
		<polygon class="st3" points="386.5,102.2 386.8,127.4 421.4,149.7 421.4,52.5 419.4,51.2 		"/>
		<g>
			<g>
				<path class="st0" d="M271,21.7v123.2c0,3.5,2.8,6.3,6.3,6.3H406c0.7,0,1.4-0.1,2-0.3c2.5-0.8,4.3-3.2,4.3-6V21.7
					c0-1.4-0.4-2.6-1.2-3.7c-1.1-1.6-3-2.7-5.2-2.7H277.3c-1.7,0-3.3,0.7-4.4,1.8C271.7,18.3,271,19.9,271,21.7z"/>
				<path class="st4" d="M280.7,25.7v111c0,0,0,0,0,0h123c0,0,0,0,0,0v-111L280.7,25.7C280.7,25.7,280.7,25.7,280.7,25.7z"/>
				<path class="st5" d="M280.7,61.8V132c0,3.8,2.5,6,6.3,6h110.4c3.8,0,6.3,0.2,6.3-3.6V84.7c-8.1,3.6-25,9.1-43.1,2
					C336.2,77.1,317.7,59.2,280.7,61.8z"/>
				<circle class="st5" cx="365" cy="50.1" r="8.5"/>
				<path class="st0" d="M406.2,54.6c0,0-1.8-5-6.4-4.5c-4.6,0.5-4.7,8.5-4.7,8.5s-0.9-1.9-3.5-1.6c-2.7,0.3-3.2,3.2-3.2,3.2
					s-6.7-3.2-8.6,1.4c-0.5,1.4,1.1,2.2,3.9,2.7c7.4,1.3,22.5-0.1,22.5-0.1V54.6z"/>
			</g>
			
				<linearGradient id="SVGID_2_" gradientUnits="userSpaceOnUse" x1="-267.4142" y1="73.8995" x2="-166.9203" y2="129.884" gradientTransform="matrix(-1 0 0 1 91.2194 0)">
				<stop  offset="0" style="stop-color:#43596E;stop-opacity:0"/>
				<stop  offset="1" style="stop-color:#479AFC;stop-opacity:0.97"/>
				<stop  offset="1" style="stop-color:#9EEEFF"/>
			</linearGradient>
			<path class="st6" d="M271,21.7v123.2c0,3.5,2.8,6.3,6.3,6.3H406c0.7,0,1.4-0.1,2-0.3C377.6,120.8,303.1,47.2,272.9,17.2
				C271.7,18.3,271,19.9,271,21.7z"/>
		</g>
	</g>
	
		<linearGradient id="SVGID_3_" gradientUnits="userSpaceOnUse" x1="-229.8519" y1="34.555" x2="-179.7323" y2="34.555" gradientTransform="matrix(-1 0 0 1 91.2194 0)">
		<stop  offset="5.319150e-03" style="stop-color:#DA5C80;stop-opacity:0"/>
		<stop  offset="1" style="stop-color:#DA5C80;stop-opacity:0.97"/>
		<stop  offset="1" style="stop-color:#9EEEFF"/>
	</linearGradient>
	<path class="st7" d="M271,21.7v25.7l41.2,6.4l8.9-38.4h-43.8C273.8,15.4,271,18.2,271,21.7z"/>
	<g>
		<g>
			<path class="st8" d="M289.8,177.1l30.6,0h32.8l39,0c3.4-0.1,6.7-0.9,9.6-2.3c6.6-3.1,11.2-9.2,11.8-17.3
				c0.8-11.8-8-21.9-19.8-22.8c-1.7-0.1-3.4,0-5,0.3c0-0.2,0.1-0.4,0.1-0.6c0.6-7.9-5.4-14.8-13.4-15.4c-5.9-0.4-11.1,2.8-13.7,7.6
				c-1.3-15.6-14.3-27.8-30.2-27.8c-8.8,0-16.7,3.7-22.2,9.7c-5.1,5.4-8.2,12.7-8.2,20.7c0,4.7,1.1,9.1,3,13.1
				c-3.4-3.3-7.9-5.4-12.9-5.8c-11.3-0.8-21.2,7.8-22,19.1C268.5,166.9,279.5,177.3,289.8,177.1z"/>
			
				<linearGradient id="SVGID_4_" gradientUnits="userSpaceOnUse" x1="-274.8874" y1="129.9718" x2="-218.78" y2="188.1121" gradientTransform="matrix(-1 0 0 1 91.2194 0)">
				<stop  offset="0" style="stop-color:#43596E;stop-opacity:0"/>
				<stop  offset="1" style="stop-color:#4D57BE"/>
			</linearGradient>
			<path class="st9" d="M289.8,177.1l30.6,0h32.8l39,0c3.4-0.1,6.7-0.9,9.6-2.3l-92.4-66.4c-5.1,5.4-8.2,12.7-8.2,20.7
				c0,4.7,1.1,9.1,3,13.1c-3.4-3.3-7.9-5.4-12.9-5.8c-11.3-0.8-21.2,7.8-22,19.1C268.5,166.9,279.5,177.3,289.8,177.1z"/>
		</g>
		<g>
			<path class="st0" d="M355.7,116.9c-5-11.5-17.9-16-29.6-14.8c-0.7,0.1-0.7-1,0-1.1c12-1.2,25.4,3.5,30.5,15.4
				C356.9,117,355.9,117.5,355.7,116.9L355.7,116.9z"/>
		</g>
		<g>
			<path class="st0" d="M385.5,134c0.1-2.2-0.5-4.5-1.4-6.4c-2.5-5.2-8-6.2-13.3-5.6c-0.7,0.1-0.7-1,0-1.1
				c5.3-0.6,10.9,0.4,13.8,5.4c1.3,2.2,2.1,5.1,2,7.7C386.6,134.6,385.5,134.7,385.5,134L385.5,134z"/>
		</g>
		<g>
			<path class="st0" d="M400.9,172.5c16.3-10.8,9.2-34-10.1-34.8c-0.7,0-0.7-1.1,0-1.1c20.3,0.9,27.9,25.3,10.6,36.8
				C400.8,173.8,400.3,172.9,400.9,172.5L400.9,172.5z"/>
		</g>
	</g>
	<g>
		
			<linearGradient id="SVGID_5_" gradientUnits="userSpaceOnUse" x1="-255.4579" y1="154.0083" x2="-225.1064" y2="181.3907" gradientTransform="matrix(-1 0 0 1 91.2194 0)">
			<stop  offset="0" style="stop-color:#43596E;stop-opacity:0"/>
			<stop  offset="1" style="stop-color:#4D57BE"/>
		</linearGradient>
		<polygon class="st10" points="317.1,162.3 325,162.3 325,177.1 345.4,177.1 345.4,162.3 353.3,162.3 335.2,142.5 		"/>
		<polygon class="st0" points="319,162.3 326.9,162.3 326.9,177.1 347.3,177.1 347.3,162.3 355.2,162.3 337.1,142.5 		"/>
	</g>
	<g>
		<polygon class="st0" points="0,181.7 125.1,200 133.3,144.1 135.4,129.8 143.5,75 18.4,56.6 		"/>
		<polygon class="st2" points="13.1,175.1 115.4,190.1 122.5,141.4 130.4,87.8 28.1,72.8 26,87.2 		"/>
		<path class="st1" d="M13.1,175.1l102.3,15l7.2-48.7c-3.9-9.3-11-20.2-22.1-20.7c-19.5-0.9-19.1,27.1-35,23.6
			C50.7,141.2,45.2,95.9,26,87.2L13.1,175.1z"/>
		<circle class="st1" cx="73.1" cy="105.9" r="7.3"/>
		<path class="st0" d="M24.7,80.6c0,0,4.2-6.5,7.9-3.8c3.8,2.8,1.8,7.9,1.8,7.9s5.6-3.4,8.9,0c3.4,3.4,0.4,10.6,0.4,10.6
			s7.3-0.3,6.7,3.2c-0.6,3.9-27.4-2.8-27.4-2.8L24.7,80.6z"/>
		
			<linearGradient id="SVGID_6_" gradientUnits="userSpaceOnUse" x1="-66.4609" y1="80.524" x2="141.9314" y2="196.3884" gradientTransform="matrix(-1 0 0 1 91.2194 0)">
			<stop  offset="5.319150e-03" style="stop-color:#DA5C80;stop-opacity:0"/>
			<stop  offset="1" style="stop-color:#DA5C80;stop-opacity:0.97"/>
			<stop  offset="1" style="stop-color:#9EEEFF"/>
		</linearGradient>
		<polygon class="st11" points="18.4,56.6 125.1,200 0,181.7 		"/>
		
			<linearGradient id="SVGID_7_" gradientUnits="userSpaceOnUse" x1="-133.6129" y1="43.1862" x2="74.7668" y2="159.0436" gradientTransform="matrix(-1 0 0 1 91.2194 0)">
			<stop  offset="0" style="stop-color:#43596E;stop-opacity:0"/>
			<stop  offset="1" style="stop-color:#479AFC;stop-opacity:0.97"/>
			<stop  offset="1" style="stop-color:#9EEEFF"/>
		</linearGradient>
		<polygon class="st12" points="18.4,56.6 20.7,59.7 20.7,59.7 139.3,77.8 131.6,129.8 129.5,144.1 122,195.5 125.1,200 
			133.3,144.1 135.4,129.8 143.5,75 		"/>
	</g>
	<path class="st13" d="M206.5,373.5c0.3-3.5-0.2-7.1-2.9-8.9c-5.2-3.4-11.6-7.8-14.3-10.5c-2.5-2.6,0.8-8.4,3.4-11.4
		c2.5-3,5.6-3.5,8-1.5c2.6,2.2,5.5,4.3,11.6,10.3c3.7,3.7,1.5,7.2,3.1,20.8C214,374.6,208.5,375.3,206.5,373.5z"/>
	<path class="st13" d="M204.8,347.6c-5.5-7.2-8.3-11.7-10.2-15c-1.8-3.3-2.4-4.9-4.2-3.7c-1.8,1.2,2.1,10.7,2.1,10.7
		s-13.2-7.4-15-3.7c-2.3,4.8-3.3,7.5,0.6,11.2c3.9,3.7,13.1,7,17.2,10.8C199.5,361.7,203.6,357.2,204.8,347.6z"/>
	<g>
		<path class="st14" d="M180.5,299.2c-0.1-2.5-0.1-5.1,0-7.6c0.1-2.5,0.6-4.9,1.5-7.2c0.9-2.3,2.2-4.5,4.1-6.6
			c1.8-2.1,4.4-4.1,7.6-6c1.3-0.8,3.2-1.8,5.6-3.2c2.4-1.3,4.8-2.9,7.3-4.7c2.4-1.8,4.5-3.8,6.2-6c1.7-2.2,2.5-4.6,2.4-7.1
			c-0.1-2.8-1.3-4.9-3.6-6.5c-2.2-1.5-4.8-2.2-7.7-2.1c-2.2,0.1-4,0.6-5.6,1.5c-1.5,0.9-2.9,2-4,3.3c-1.1,1.3-2,2.5-2.7,3.9
			c-0.7,1.3-1.4,2.4-2.1,3.3l-22.7-14.7c2.8-7.5,7.5-13.5,14.1-17.9c6.6-4.4,14.3-6.8,23-7.2c4.6-0.2,9.3,0.3,14.1,1.4
			c4.8,1.1,9.1,3.1,13.1,5.8c3.9,2.7,7.2,6.4,9.8,11c2.6,4.6,4,10.3,4.3,17.1c0.3,5.8-0.6,11.2-2.5,16c-1.9,4.9-5.5,9.2-10.8,13.1
			c-2.6,1.9-5.2,3.6-8,5.1c-2.7,1.5-5.2,2.9-7.5,4.3c-2.3,1.4-4.2,2.9-5.6,4.4c-1.5,1.5-2.1,3.2-2.1,5.2L180.5,299.2z M183,346.2
			l-1.3-29.8l28.2-1.2l1.3,29.8L183,346.2z"/>
	</g>
	<path class="st15" d="M335.4,358.9c-16.1,3.1-38.3,5.5-60.9,37.4c-22.6,31.9-41.5,55.6-47.1,64.2s-12,23-1.5,35.2
		c10.4,12.2,29.2-2.4,45.5-21.1s33.1-40.1,43-55.2C324.2,404.2,339.4,365.5,335.4,358.9z"/>
	<path class="st15" d="M203.6,371.8c3.2,0.2,11-1.2,14-2.9c3.3,10.9,11,37.9,18,58c9.4,27.2,29,54.9,10.4,66.8
		c-16.6,10.7-25.6,3.2-32.3-26.3C206.5,435.2,203.6,371.8,203.6,371.8z"/>
	<path class="st15" d="M455.5,293c-16.8,15.3-69.8,73.6-74.6,81.4c-4.7,7.8,26.2,60.3,33.8,50.2c9.5-12.7,44.5-55.7,60.3-80.2
		c12.2-18.9,18.6-32.5,21-40.1c4.4-13.6,2.8-24.1-8.3-27C478.5,274.8,466.6,282.8,455.5,293z"/>
	<path class="st16" d="M352.8,354.1c-34.5-0.6-53.5,15.7-58.6,40.9c-5,25.2-7,154.8-6.4,168.6c0.6,13.8,88,24.6,138.7,0
		c-2-20-7.8-131.8-8.4-143.1C417.5,409.1,409.1,355.1,352.8,354.1z"/>
	<g>
		<path class="st17" d="M367.6,362l-2.8-48.1l-28,1.3l-4,47C341,366.1,358.6,366.2,367.6,362z"/>
		<g>
			<path class="st13" d="M316.2,289.3c3.1,8,3,14.1-2.2,16.4c-5.2,2.3-16.4-0.7-19.5-8.7c-3.1-8-1.4-16.3,3.8-18.6
				C303.5,276.1,313.1,281.3,316.2,289.3z"/>
			<path class="st13" d="M303.3,298.7c4.2,27.3,23.6,45.5,51,43.1c24.9-2.2,42.2-37.1,42.9-68.9c0.7-31.8-16.3-57-46.5-56.5
				C304.7,217.2,294.6,241.3,303.3,298.7z"/>
			<path class="st13" d="M382.5,286.7c-3.2,7.9-3.2,14,2,16.4c5.2,2.4,16.4-0.5,19.6-8.4c3.2-7.9,1.6-16.3-3.6-18.6
				C395.3,273.7,385.7,278.8,382.5,286.7z"/>
			
				<linearGradient id="SVGID_8_" gradientUnits="userSpaceOnUse" x1="576.3865" y1="227.9416" x2="564.6892" y2="235.2129" gradientTransform="matrix(0.9679 0.2513 -0.2513 0.9679 -143.6783 -78.1574)">
				<stop  offset="0" style="stop-color:#D38278"/>
				<stop  offset="1" style="stop-color:#F6B9AD;stop-opacity:0"/>
			</linearGradient>
			<path class="st18" d="M342.6,283.8c7.3-1.5,13.5-0.3,14.8,5.2c1.4,5.4-6,8.7-12.1,9.4C339.3,299.1,336.9,285,342.6,283.8z"/>
			<g>
				<path class="st19" d="M339.4,284.9c1.4-0.5,2.9-0.9,4.3-1.2c1.5-0.2,3-0.4,4.5-0.3c1.5,0,3.1,0.3,4.5,0.8c1.5,0.5,2.9,1.3,4,2.5
					c1.1,1.2,1.5,3.1,1,4.6c-0.5,1.6-1.5,2.8-2.7,3.8c-2.4,2-5.2,3.2-8.1,4c1.3-0.7,2.7-1.3,4-2.1c1.3-0.7,2.5-1.6,3.6-2.6
					c1-1,2-2.2,2.3-3.5c0.4-1.3,0-2.7-0.9-3.7c-0.9-1-2.2-1.8-3.5-2.2c-1.3-0.5-2.8-0.7-4.2-0.9
					C345.3,283.9,342.3,284.2,339.4,284.9z"/>
			</g>
			<g>
				
					<linearGradient id="SVGID_9_" gradientUnits="userSpaceOnUse" x1="543.4273" y1="213.428" x2="548.2808" y2="229.8953" gradientTransform="matrix(0.9679 0.2513 -0.2513 0.9679 -143.6783 -78.1574)">
					<stop  offset="0" style="stop-color:#DA9C68"/>
					<stop  offset="1" style="stop-color:#DA9C68;stop-opacity:0"/>
				</linearGradient>
				<path class="st20" d="M339.4,264.1c0.7,5,3.5,19.7-10.6,20.9c-14.1,1.2-10.7-15.9-10.7-15.9S333,264.7,339.4,264.1z"/>
				<path class="st21" d="M334.7,283.5c-0.3,1-1.3,1.6-2.3,1.4c-1-0.3-1.6-1.3-1.4-2.3c0.3-1,1.3-1.6,2.3-1.4
					C334.4,281.4,335,282.5,334.7,283.5z"/>
				<path class="st22" d="M336.4,263.2c-16.2,1.1-25,7.5-14.8,7.5C331.9,270.6,347,262.4,336.4,263.2z"/>
			</g>
			<g>
				
					<linearGradient id="SVGID_10_" gradientUnits="userSpaceOnUse" x1="718.1036" y1="168.076" x2="722.9572" y2="184.5434" gradientTransform="matrix(-0.9679 0.2513 0.2513 0.9679 1018.8396 -78.1574)">
					<stop  offset="0" style="stop-color:#DA9C68"/>
					<stop  offset="1" style="stop-color:#DA9C68;stop-opacity:0"/>
				</linearGradient>
				<path class="st23" d="M355.3,264.1c-0.7,5-3.5,19.7,10.6,20.9c14.1,1.2,10.7-15.9,10.7-15.9S361.7,264.7,355.3,264.1z"/>
				<path class="st21" d="M359.9,283.5c0.3,1,1.3,1.6,2.3,1.4c1-0.3,1.6-1.3,1.4-2.3c-0.3-1-1.3-1.6-2.3-1.4
					C360.3,281.4,359.7,282.5,359.9,283.5z"/>
				<path class="st22" d="M358.3,263.2c16.2,1.1,25,7.5,14.8,7.5C362.8,270.6,347.7,262.4,358.3,263.2z"/>
			</g>
			<path class="st24" d="M320.6,288.7c0,1.1-2.8,2-6.3,2c-3.5,0-6.3-0.9-6.3-2c0-1.1,2.8-2,6.3-2
				C317.8,286.8,320.6,287.6,320.6,288.7z"/>
			<path class="st24" d="M386.9,288.7c0,1.1-2.8,2-6.3,2c-3.5,0-6.3-0.9-6.3-2c0-1.1,2.8-2,6.3-2
				C384.1,286.8,386.9,287.6,386.9,288.7z"/>
		</g>
		<path class="st25" d="M305.5,317.6c5.9,13.3,14.1,22.9,23.5,26.6c17,6.7,31.8,4.6,44.4-2.5c28.4-16,22.7-96.9,22.7-96.9l-8,1.6
			c0,0,2.1,53.1-5.3,61.8c-3.1,3.7-15.9-3.5-32.7-3.7c-19.9-0.2-36.3,8.7-39.2,4.7c-3.5-4.8-8.8-32.5-2.5-63.3
			c2.5-12.2-12.2-0.4-12.2-0.4S297.9,300.4,305.5,317.6z"/>
		<path class="st25" d="M331.6,213.5l5.1-3.6c6.7-5.6,29.3-11.4,37.5-4.6c-1.9,0-0.6,1.2-2.5,1.3c11.3,2.5,29.7,7.4,31,31.9
			c0.6,11.1-1.1,26.5-3.2,37.2c-2.6,0.3-2.4-0.9-4.5,0.7c-1.6,1.3-2,1.9-2.5,3.1c0.5-12.5-3.5-29.4-12.6-39.2
			c-4.2-4.6-15.4-2.5-21.5-3.8c-7.6-1.6-14.8-4.3-20.6-9.3C330.8,221.3,326.9,218.2,331.6,213.5z"/>
		<path class="st25" d="M341.3,209.7c7.3,2.5,16.8,4.4,20.9,11.5l-2.3-0.7c7.6,9.2-15.1,34.1-21,40c-6.7,6.8-15.4,10.2-23.8,12.2
			c-0.2-1.5,0-3.1,0.3-4.6c0.3-0.9,0.6-1.7,0.7-2.4c-0.3,0.8-0.5,1.6-0.7,2.4c-0.9,2.4-2.6,5-4,6.4c-3.1,3.2-10.5,13.2-11.2,21
			c-10.2-40.5-12.1-63.9,6.8-80.9C316.8,205.9,336.3,208,341.3,209.7z"/>
		<g>
			<path class="st26" d="M333.3,317.1c1.1,0.1,2.1,0.4,3.1,0.6c1,0.3,2,0.7,3,1c2,0.7,3.9,1.5,6,1.9c4.1,1,8.3,1.2,12.5,1.7
				c-2.1,0.2-4.3,0.3-6.4,0.2c-2.1-0.1-4.3-0.3-6.4-0.8c-2.1-0.5-4.1-1.3-6.1-2.2C337.2,318.6,335.3,317.7,333.3,317.1z"/>
		</g>
	</g>
	<path class="st13" d="M417.2,210.6c-4-3.6-9.1-12.8-17.5-15.5c-8.3-2.6-16.8,0.3-23.3,8.5c-6.5,8.2-3.7,10.7-1.7,9.4
		c2-1.3,11.3-9.1,16.2-9.1c4.9,0,9.3,5.8,17,8.9C415.7,216,417,214.2,417.2,210.6z"/>
	<path class="st15" d="M416.2,204.3c-1.1,2.8-4.9,6.9-10.4,9.2c15.9,16,40.9,71.2,47.6,87.4c6.7,16.2,29.5,19.2,39.2,7.2
		c9.3-11.5,10.7-24.9-18.9-53.3C447.2,229.4,416.2,204.3,416.2,204.3z"/>
	<path class="st13" d="M210.4,357.1c-6.2,1.3-8.1-6.2-7-9.5c1.1-3.4,1.4-7.2,0.8-10.2c-0.6-3-0.4-6.1,2-6.6
		c2.4-0.4,2.1,3.6,3.2,10.1C210.7,347.5,217.3,355.6,210.4,357.1z"/>
	<g>
		<polygon class="st0" points="580.2,183.4 592.6,191.4 629.3,215 653.1,230.4 700,157.5 629.3,111.9 627.1,110.5 592.2,164.7 		"/>
		<polygon class="st1" points="590.2,183 614.8,198.9 649.8,221.4 671.7,187.4 688.2,161.8 628.6,123.4 		"/>
		<path class="st2" d="M612.1,164.6l2.7,34.3l35,22.5l21.9-34c-1.8-1.1-3.9-1.8-6-2.4c-4-1.1-8.1-1.6-12.2-1.7
			c-5.5-0.1-10.9,0.8-16.4,0.4c-5.4-0.4-11.1-2.4-14.2-6.9c-1.7-2.5-2.5-5.5-4.4-7.9C617,166.7,614.7,165.2,612.1,164.6z"/>
		<path class="st2" d="M629.3,152.9c0,3.2,2.6,5.8,5.8,5.8c3.2,0,5.8-2.6,5.8-5.8s-2.6-5.8-5.8-5.8
			C631.9,147.1,629.3,149.7,629.3,152.9z"/>
	</g>
	<g>
		<polygon class="st0" points="547.1,170.3 429.1,125 449.3,72.2 454.5,58.7 474.4,7 592.4,52.2 		"/>
		<polygon class="st2" points="539,158.1 442.4,121.1 460.1,75.1 479.5,24.5 576,61.6 570.8,75.2 		"/>
		<path class="st1" d="M539,158.1l-96.6-37.1l17.7-46c8-6.1,19.5-12.2,29.4-7.2c17.4,8.8,3.3,32.9,18.9,37.7
			c14.5,4.5,41.4-32.3,62.4-30.5L539,158.1z"/>
		
			<ellipse transform="matrix(0.4903 -0.8716 0.8716 0.4903 205.7403 488.5869)" class="st1" cx="520.6" cy="68.4" rx="7.3" ry="7.3"/>
		
			<linearGradient id="SVGID_11_" gradientUnits="userSpaceOnUse" x1="-75.2937" y1="1733.662" x2="133.0986" y2="1849.5265" gradientTransform="matrix(0.8716 0.4903 -0.4903 0.8716 1374.8595 -1469.2736)">
			<stop  offset="5.319150e-03" style="stop-color:#DA5C80;stop-opacity:0"/>
			<stop  offset="1" style="stop-color:#DA5C80;stop-opacity:0.97"/>
			<stop  offset="1" style="stop-color:#9EEEFF"/>
		</linearGradient>
		<polygon class="st27" points="592.4,52.2 429.1,125 547.1,170.3 		"/>
		
			<linearGradient id="SVGID_12_" gradientUnits="userSpaceOnUse" x1="-142.4458" y1="1696.3242" x2="65.934" y2="1812.1816" gradientTransform="matrix(0.8716 0.4903 -0.4903 0.8716 1374.8595 -1469.2736)">
			<stop  offset="0" style="stop-color:#43596E;stop-opacity:0"/>
			<stop  offset="1" style="stop-color:#479AFC;stop-opacity:0.97"/>
			<stop  offset="1" style="stop-color:#9EEEFF"/>
		</linearGradient>
		<polygon class="st28" points="592.4,52.2 588.8,53.9 588.8,53.8 476.7,11.5 457.8,60.6 452.6,74.1 434,122.5 429.1,125 
			449.3,72.2 454.5,58.7 474.4,7 		"/>
		<path class="st0" d="M575.1,70.1c0,0-0.4-7.7-5.1-7.2c-4.6,0.6-5.4,6-5.4,6s-3.2-5.7-7.8-4.4c-4.6,1.3-5.5,9-5.5,9
			s-6.2-3.8-7.4-0.5c-1.4,3.7,25.2,11,25.2,11L575.1,70.1z"/>
	</g>
</g>
</svg>
