<?xml version="1.0" encoding="utf-8"?>
<!-- Generator: Adobe Illustrator 19.0.0, SVG Export Plug-In . SVG Version: 6.00 Build 0)  -->
<svg version="1.1" id="Capa_1" xmlns="http://www.w3.org/2000/svg" xmlns:xlink="http://www.w3.org/1999/xlink" x="0px" y="0px"
	 viewBox="-159.8 391.6 45.1 59.3" style="enable-background:new -159.8 391.6 45.1 59.3;" xml:space="preserve">
<style type="text/css">
	.st0{fill:#FFFFFF;}
	.st1{fill:#F19301;}
</style>
<g>
	<path class="st0" d="M-118.3,402.1c-0.4-0.6-0.8-1.4-1.4-2c-4.3-5.4-10.7-8.5-17.5-8.5c-7,0-13.4,3.1-17.7,8.5
		c-0.7,0.8-1.2,1.5-1.6,2.3c-2.1,3.5-3.3,7.5-3.3,11.7c0,5.5,2,10.7,5.6,14.8l17,22l14.9-19.3l1.3-1.5c3.9-4.1,6.4-10.2,6.4-15.4
		c0-4.3-1.2-8.7-3.4-12.2C-118.2,402.3-118.3,402.2-118.3,402.1z M-122.4,427.3c-4,4.5-14.8,18.6-14.8,18.6l-14.8-18.5
		c-3.1-3.5-4.9-8-4.9-13c0-3.7,1-7.2,2.9-10.2l1.8,1.8l1.8,1.8l1.5,1.5l2.4,2.4l1.7,1.7c0,0.4-0.1,0.7-0.1,1.1
		c0,4.3,3.5,7.8,7.8,7.8s7.8-3.5,7.8-7.8c0-0.5,0-0.9-0.1-1.4l1.7-1.7l2.4-2.4l1.5-1.5l1.8-1.8c-0.4-0.7-0.9-1.4-1.4-2
		c-3.2-4-8.1-6.6-13.6-6.6c-4.6,0-8.9,1.8-12,4.8l1.7,1.7c2.7-2.6,6.3-4.1,10.3-4.1c4.9,0,9.2,2.3,11.9,5.9l-1.4,1.4l-2.2,2.2
		l-1.5,1.5c-1.3-2.4-3.9-4-6.8-4c-3,0-5.6,1.7-6.9,4.2l-1.5-1.5c1.7-2.8,4.9-4.7,8.4-4.7c2.5,0,4.8,0.9,6.5,2.5l2.2-2.2
		c-2.3-2.1-5.4-3.4-8.7-3.4c-4.4,0-8.3,2.2-10.7,5.6l-1.4-1.4l-1.7-1.7l-1.7-1.7c3.6-4.6,9.2-7.5,15.5-7.5c6.2,0,11.7,2.9,15.3,7.3
		c0.5,0.6,1,1.3,1.4,2c1.9,3,3,6.6,3,10.4C-117.5,419.3-119,423.3-122.4,427.3z M-140.9,414.4c0-2,1.6-3.7,3.7-3.7
		c2,0,3.7,1.6,3.7,3.7s-1.6,3.7-3.7,3.7C-139.3,418.1-140.9,416.4-140.9,414.4z"/>
	<circle class="st1" cx="-137.2" cy="414.4" r="3.7"/>
	<path class="st1" d="M-121.9,402c-3.6-4.5-9.1-7.3-15.3-7.3c-6.3,0-11.9,2.9-15.5,7.5l1.7,1.7l1.7,1.7l1.4,1.4
		c2.3-3.4,6.3-5.6,10.7-5.6c3.4,0,6.4,1.3,8.7,3.4l-2.2,2.2c-1.7-1.5-4-2.5-6.5-2.5c-3.6,0-6.7,1.9-8.4,4.7l1.5,1.5
		c1.3-2.5,3.9-4.2,6.9-4.2c2.9,0,5.5,1.6,6.8,4l1.5-1.5l2.2-2.2l1.4-1.4c-2.7-3.6-7-5.9-11.9-5.9c-4,0-7.6,1.6-10.3,4.1l-1.7-1.7
		c3.1-3,7.3-4.8,12-4.8c5.5,0,10.5,2.6,13.6,6.6c0.5,0.6,1,1.3,1.4,2l-1.8,1.8l-1.5,1.5l-2.4,2.4l-1.7,1.7c0.1,0.4,0.1,0.9,0.1,1.4
		c0,4.3-3.5,7.8-7.8,7.8s-7.8-3.5-7.8-7.8c0-0.4,0-0.7,0.1-1.1l-1.7-1.7l-2.4-2.4l-1.5-1.5l-1.8-1.8l-1.8-1.8
		c-1.8,3-2.9,6.5-2.9,10.2c0,5,1.9,9.6,4.9,13l14.8,18.5c0,0,10.8-14.1,14.8-18.6c3.5-4,4.9-8,4.9-13c0-3.8-1.1-7.4-3-10.4
		C-120.9,403.3-121.4,402.6-121.9,402z"/>
</g>
</svg>
