<?xml version="1.0" encoding="utf-8"?>
<!-- Generator: Adobe Illustrator 22.0.0, SVG Export Plug-In . SVG Version: 6.00 Build 0)  -->
<svg version="1.2" baseProfile="tiny" id="Capa_1" xmlns="http://www.w3.org/2000/svg" xmlns:xlink="http://www.w3.org/1999/xlink"
	 x="0px" y="0px" viewBox="0 0 141 152" xml:space="preserve">
<g>
	<rect x="0.9" y="0.2" fill="#E2E2E2" width="142.6" height="151.2"/>
	<g>
		<path fill="#FFFFFF" d="M64.8,78.5l-0.2-2.7C64,70.2,65.8,64.1,71,57.9c4.7-5.5,7.3-9.5,7.3-14.2c0-5.3-3.3-8.8-9.9-8.9
			c-3.7,0-7.9,1.2-10.5,3.2l-2.5-6.5c3.4-2.5,9.3-4.1,14.8-4.1c11.9,0,17.3,7.4,17.3,15.2c0,7-3.9,12.1-8.9,18
			c-4.6,5.4-6.2,10-5.9,15.2l0.1,2.7H64.8z M62.5,93.1c0-3.8,2.6-6.5,6.2-6.5s6.1,2.7,6.1,6.5c0,3.6-2.4,6.4-6.2,6.4
			C65,99.5,62.5,96.7,62.5,93.1z"/>
	</g>
	<g>
		<path fill="#FCFCFC" d="M31,122.9c-0.8-0.2-1.4-0.5-1.8-0.9l0.8-1.8c0.4,0.3,1,0.6,1.6,0.8c0.6,0.2,1.2,0.3,1.8,0.3
			c0.7,0,1.2-0.1,1.5-0.3c0.3-0.2,0.5-0.5,0.5-0.8c0-0.2-0.1-0.4-0.3-0.6c-0.2-0.2-0.4-0.3-0.7-0.4c-0.3-0.1-0.7-0.2-1.2-0.3
			c-0.8-0.2-1.4-0.4-1.9-0.6c-0.5-0.2-0.9-0.5-1.3-0.9c-0.4-0.4-0.5-1-0.5-1.6c0-0.6,0.2-1.1,0.5-1.6c0.3-0.5,0.8-0.9,1.5-1.2
			c0.7-0.3,1.4-0.4,2.4-0.4c0.7,0,1.3,0.1,1.9,0.2c0.6,0.2,1.2,0.4,1.6,0.7l-0.7,1.8c-0.9-0.5-1.9-0.8-2.8-0.8
			c-0.7,0-1.2,0.1-1.5,0.3c-0.3,0.2-0.5,0.5-0.5,0.9s0.2,0.6,0.6,0.8c0.4,0.2,0.9,0.3,1.7,0.5c0.8,0.2,1.4,0.4,1.9,0.6
			c0.5,0.2,0.9,0.5,1.3,0.9s0.5,0.9,0.5,1.6c0,0.6-0.2,1.1-0.5,1.6c-0.3,0.5-0.8,0.9-1.5,1.2c-0.7,0.3-1.5,0.4-2.4,0.4
			C32.5,123.2,31.7,123.1,31,122.9z"/>
		<path fill="#FCFCFC" d="M39.3,113.6c-0.3-0.2-0.4-0.5-0.4-0.9s0.1-0.7,0.4-0.9c0.3-0.2,0.6-0.4,1-0.4c0.4,0,0.8,0.1,1,0.4
			c0.3,0.2,0.4,0.5,0.4,0.9c0,0.4-0.1,0.7-0.4,0.9c-0.3,0.2-0.6,0.4-1,0.4C39.9,114,39.5,113.9,39.3,113.6z M39.1,115.1h2.3v7.9
			h-2.3V115.1z"/>
		<path fill="#FCFCFC" d="M50.7,115.9c0.6,0.6,0.9,1.5,0.9,2.6v4.5h-2.3v-4.2c0-0.6-0.1-1.1-0.4-1.4c-0.3-0.3-0.7-0.5-1.2-0.5
			c-0.6,0-1,0.2-1.4,0.5s-0.5,0.9-0.5,1.6v3.9h-2.3v-7.9h2.2v0.9c0.3-0.3,0.7-0.6,1.1-0.8c0.5-0.2,0.9-0.3,1.5-0.3
			C49.4,115,50.1,115.3,50.7,115.9z"/>
		<path fill="#FCFCFC" d="M58,113.6c-0.3-0.2-0.4-0.5-0.4-0.9s0.1-0.7,0.4-0.9c0.3-0.2,0.6-0.4,1-0.4c0.4,0,0.8,0.1,1,0.4
			c0.3,0.2,0.4,0.5,0.4,0.9c0,0.4-0.1,0.7-0.4,0.9c-0.3,0.2-0.6,0.4-1,0.4C58.6,114,58.3,113.9,58,113.6z M57.9,115.1h2.3v7.9h-2.3
			V115.1z"/>
		<path fill="#FCFCFC" d="M74.8,115.9c0.6,0.6,0.9,1.5,0.9,2.6v4.5h-2.3v-4.2c0-0.6-0.1-1.1-0.4-1.4c-0.3-0.3-0.6-0.5-1.1-0.5
			c-0.5,0-1,0.2-1.3,0.5s-0.5,0.9-0.5,1.5v4h-2.3v-4.2c0-1.2-0.5-1.9-1.5-1.9c-0.5,0-1,0.2-1.3,0.5c-0.3,0.3-0.5,0.9-0.5,1.5v4h-2.3
			v-7.9h2.2v0.9c0.3-0.3,0.7-0.6,1.1-0.8c0.4-0.2,0.9-0.3,1.4-0.3c0.6,0,1.1,0.1,1.5,0.3c0.5,0.2,0.8,0.5,1.1,1
			c0.3-0.4,0.7-0.7,1.2-1c0.5-0.2,1-0.3,1.6-0.3C73.4,115,74.2,115.3,74.8,115.9z"/>
		<path fill="#FCFCFC" d="M83.7,115.9c0.7,0.6,1,1.5,1,2.6v4.5h-2.1v-1c-0.4,0.7-1.2,1.1-2.4,1.1c-0.6,0-1.1-0.1-1.6-0.3
			c-0.4-0.2-0.8-0.5-1-0.9c-0.2-0.4-0.4-0.8-0.4-1.2c0-0.7,0.3-1.3,0.8-1.7c0.6-0.4,1.4-0.6,2.6-0.6h1.8c0-0.5-0.2-0.9-0.5-1.2
			s-0.8-0.4-1.4-0.4c-0.4,0-0.8,0.1-1.2,0.2c-0.4,0.1-0.8,0.3-1,0.5l-0.8-1.6c0.4-0.3,0.9-0.5,1.5-0.7c0.6-0.2,1.2-0.3,1.9-0.3
			C82.1,115,83.1,115.3,83.7,115.9z M81.8,121.3c0.3-0.2,0.5-0.4,0.6-0.8v-0.8h-1.6c-0.9,0-1.4,0.3-1.4,0.9c0,0.3,0.1,0.5,0.3,0.7
			c0.2,0.2,0.5,0.3,0.9,0.3C81.1,121.6,81.5,121.5,81.8,121.3z"/>
		<path fill="#FCFCFC" d="M95,115.1v6.6c0,1.4-0.4,2.5-1.1,3.2S92,126,90.6,126c-0.8,0-1.5-0.1-2.2-0.3c-0.7-0.2-1.3-0.5-1.7-0.8
			l0.9-1.6c0.3,0.3,0.8,0.5,1.3,0.7c0.5,0.2,1,0.2,1.5,0.2c0.8,0,1.4-0.2,1.8-0.5s0.6-0.9,0.6-1.6v-0.3c-0.6,0.7-1.4,1-2.5,1
			c-0.7,0-1.4-0.2-2-0.5c-0.6-0.3-1.1-0.8-1.4-1.3s-0.5-1.2-0.5-2s0.2-1.4,0.5-2c0.4-0.6,0.8-1,1.4-1.3c0.6-0.3,1.3-0.5,2-0.5
			c1.1,0,2,0.4,2.6,1.1v-1H95z M92.2,120.2c0.4-0.4,0.6-0.8,0.6-1.4s-0.2-1-0.6-1.4s-0.9-0.5-1.5-0.5c-0.6,0-1.1,0.2-1.5,0.5
			c-0.4,0.4-0.6,0.8-0.6,1.4s0.2,1,0.6,1.4c0.4,0.4,0.9,0.5,1.5,0.5C91.3,120.7,91.8,120.6,92.2,120.2z"/>
		<path fill="#FCFCFC" d="M104.8,119.7h-6c0.1,0.5,0.4,0.9,0.8,1.2s0.9,0.4,1.5,0.4c0.4,0,0.8-0.1,1.1-0.2c0.3-0.1,0.6-0.3,0.9-0.6
			l1.2,1.3c-0.7,0.9-1.8,1.3-3.3,1.3c-0.9,0-1.7-0.2-2.4-0.5c-0.7-0.3-1.2-0.8-1.6-1.4c-0.4-0.6-0.6-1.3-0.6-2.1
			c0-0.8,0.2-1.5,0.6-2.1c0.4-0.6,0.9-1.1,1.5-1.5c0.6-0.3,1.4-0.5,2.2-0.5c0.8,0,1.5,0.2,2.1,0.5c0.6,0.3,1.1,0.8,1.5,1.4
			s0.5,1.3,0.5,2.2C104.9,119.1,104.9,119.3,104.8,119.7z M99.5,117.2c-0.4,0.3-0.6,0.7-0.6,1.2h3.9c-0.1-0.5-0.3-0.9-0.6-1.2
			s-0.8-0.4-1.3-0.4C100.3,116.7,99.8,116.9,99.5,117.2z"/>
		<path fill="#FCFCFC" d="M113.6,115.9c0.6,0.6,0.9,1.5,0.9,2.6v4.5h-2.3v-4.2c0-0.6-0.1-1.1-0.4-1.4c-0.3-0.3-0.7-0.5-1.2-0.5
			c-0.6,0-1,0.2-1.4,0.5c-0.3,0.4-0.5,0.9-0.5,1.6v3.9h-2.3v-7.9h2.2v0.9c0.3-0.3,0.7-0.6,1.1-0.8c0.5-0.2,0.9-0.3,1.5-0.3
			C112.2,115,113,115.3,113.6,115.9z"/>
	</g>
</g>
<g>
</g>
<g>
</g>
<g>
</g>
<g>
</g>
<g>
</g>
<g>
</g>
<g>
</g>
<g>
</g>
<g>
</g>
<g>
</g>
<g>
</g>
<g>
</g>
<g>
</g>
<g>
</g>
<g>
</g>
</svg>
