<svg xmlns="http://www.w3.org/2000/svg" viewBox="0 0 370 400.54"><title>AVATAR 370 POR 400</title><rect width="370" height="400.54" style="fill:#dcebef"/><path d="M352.62,391.52l-8.35-33.81a48.86,48.86,0,0,0-31.8-34.92l-61.22-20.65c-14.93-6.29-21.76-30.63-23.24-39.87a58.74,58.74,0,0,0,20.45-38.08,11.61,11.61,0,0,1,1.69-7.25,7,7,0,0,0,4.77-4.23,106.31,106.31,0,0,0,7.46-30.78,7,7,0,0,0-.21-1.7A18.15,18.15,0,0,0,255.42,170V132.63c0-22.69-6.84-32-14-37.4-1.38-10.93-12.94-33-55.52-33-37.78,1.54-68,32.19-69.57,70.43V170a18.1,18.1,0,0,0-6.75,10.26,7,7,0,0,0-.21,1.7,106.12,106.12,0,0,0,7.46,30.8,5.93,5.93,0,0,0,4.17,4c.78.39,2.24,2.44,2.24,7.42a58.76,58.76,0,0,0,20.57,38.15c-1.46,9.22-8.25,33.55-22.77,39.69L59.23,322.79a48.87,48.87,0,0,0-31.79,34.9l-8.34,33.8a7,7,0,0,0,5,8.56,6.5,6.5,0,0,0,1.7.22h320a7,7,0,0,0,6.95-7A7.52,7.52,0,0,0,352.62,391.52Z" transform="translate(0 0.27)" style="fill:#fff"/></svg>