<?xml version="1.0" encoding="utf-8"?>
<!-- Generator: Adobe Illustrator 23.0.3, SVG Export Plug-In . SVG Version: 6.00 Build 0)  -->
<svg version="1.1" id="Capa_1" xmlns="http://www.w3.org/2000/svg" xmlns:xlink="http://www.w3.org/1999/xlink" x="0px" y="0px"
	 width="77.7px" height="78.9px" viewBox="0 0 77.7 78.9" style="enable-background:new 0 0 77.7 78.9;" xml:space="preserve">
<style type="text/css">
	.st0{fill:#F09207;}
	.st1{fill:#FFFFFF;}
</style>
<g>
	<circle class="st0" cx="38.8" cy="40.1" r="36.1"/>
	<path class="st0" d="M50.3,45.8c-2-1.6-4.4-2.8-7.2-3.4h-4.3c0,0,0,0,0,0c0,0,0,0,0,0h-4.3c-2.8,0.7-5.2,1.8-7.2,3.4
		c-1.7,1.4-2.7,3.4-2.7,5.7v3.7H53v-3.7C53,49.2,52,47.2,50.3,45.8z"/>
	<g id="Out_line">
		<path class="st1" d="M59.3,57v-3.7c0-0.4-0.3-0.7-0.7-0.7c0,0,0,0,0,0H48.3c-0.4,0-0.7,0.3-0.7,0.7c0,0,0,0,0,0V57H33.7V43.8
			c0-0.4-0.3-0.7-0.7-0.7c0,0,0,0,0,0h-7.3c-0.4,0-0.7,0.3-0.7,0.7c0,0,0,0,0,0v7.3h1.5v-6.6h5.8V57H30v-3.7c0-0.4-0.3-0.7-0.7-0.7
			c0,0,0,0,0,0H19.1c-0.4,0-0.7,0.3-0.7,0.7c0,0,0,0,0,0V57h-1.5v1.5h43.9V57H59.3z M49,54.1h8.8V57H49V54.1z M19.8,54.1h8.8V57
			h-8.8V54.1z"/>
		<path class="st1" d="M52,43.1H35.9c-0.4,0-0.7,0.3-0.7,0.7c0,0,0,0,0,0v7.3c0,0.4,0.3,0.7,0.7,0.7c0,0,0,0,0,0H52
			c0.4,0,0.7-0.3,0.7-0.7c0,0,0,0,0,0v-7.3C52.7,43.4,52.4,43.1,52,43.1C52,43.1,52,43.1,52,43.1z M51.2,50.4H36.6v-5.8h14.6V50.4z"
			/>
		<path class="st1" d="M21.8,42.4c0.1,0,0.2,0,0.2,0v8.8h1.5v-9.2c0.4-0.3,0.8-0.6,1.1-1c0,0,0,0,0,0.1c0.6,0.9,1.7,1.4,2.7,1.4h0.2
			c1.1,0,2.1-0.5,2.7-1.3c0,0,0.1,0.1,0.1,0.1c0.6,0.8,1.6,1.2,2.6,1.2h0.4c1,0,2-0.5,2.6-1.3c0.1,0.1,0.1,0.1,0.2,0.2
			c0.6,0.7,1.5,1.1,2.5,1.1H39c0.9,0,1.8-0.4,2.5-1.1c0.1-0.1,0.1-0.1,0.2-0.2c0.6,0.8,1.6,1.3,2.6,1.3h0.4c1,0,2-0.5,2.6-1.2
			c0,0,0.1-0.1,0.1-0.1c0.6,0.8,1.6,1.3,2.7,1.3h0.2c1.1,0,2.1-0.5,2.7-1.4c0,0,0,0,0-0.1c0.3,0.4,0.7,0.8,1.1,1v9.2h1.5v-8.8
			c0.1,0,0.2,0,0.2,0c1.9,0,3.4-1.5,3.4-3.4c0-0.5-0.1-1-0.3-1.4l-3.4-7.2c-0.1-0.3-0.4-0.4-0.7-0.4h-8.8v-1.5h0.7
			c0.4,0,0.7-0.3,0.7-0.7c0,0,0,0,0,0V16.1c0-0.4-0.3-0.7-0.7-0.7c0,0,0,0,0,0H30.8c-0.4,0-0.7,0.3-0.7,0.7c0,0,0,0,0,0v11.7
			c0,0.4,0.3,0.7,0.7,0.7c0,0,0,0,0,0h0.7V30h-8.8c-0.3,0-0.5,0.2-0.7,0.4l-3.4,7.2c-0.8,1.7-0.1,3.7,1.6,4.5
			C20.8,42.3,21.3,42.4,21.8,42.4z M33.3,40.9h-0.4c-1.1,0-1.9-0.9-1.9-1.9c0-0.1,0-0.3,0-0.4h0l1.4-7.2h3.2l-0.5,7.4h0l0,0l0,0.4
			C35.1,40.1,34.3,40.9,33.3,40.9z M41.7,28.5V30h-5.8v-1.5H41.7z M40.4,40.3c-0.4,0.4-0.9,0.6-1.4,0.6h-0.4c-1.1,0-1.9-0.9-1.9-1.9
			c0,0,0-0.1,0-0.1l0.5-7.5h3.2l0.5,7.5h0C41,39.4,40.8,39.9,40.4,40.3z M46.1,40.2c-0.4,0.4-0.9,0.7-1.5,0.7h-0.4
			c-1,0-1.8-0.8-1.9-1.8l-0.5-7.7h3.2l1.4,7.2C46.7,39.2,46.5,39.8,46.1,40.2z M54.4,31.4l3.2,6.8c0.4,1,0,2.1-0.9,2.5
			c-0.3,0.1-0.5,0.2-0.8,0.2c-0.8,0-1.6-0.5-1.8-1.3l-0.6-1.7l0,0l0,0l-2.2-6.5H54.4z M52.1,38.4c0.3,1-0.2,2.1-1.2,2.4
			c-0.2,0.1-0.4,0.1-0.6,0.1h-0.2c-0.9,0-1.7-0.6-1.9-1.5l-0.2-1v0l0,0l-1.4-6.9h3.2L52.1,38.4z M44.7,30h-1.5v-1.5h1.5V30z
			 M31.5,16.8h14.6V27H31.5V16.8z M33,28.5h1.5V30H33V28.5z M31,31.4l-1.6,8c-0.2,0.9-1,1.5-1.9,1.5h-0.2c-1.1,0-1.9-0.9-1.9-1.9
			c0-0.2,0-0.4,0.1-0.6l2.3-7H31z M20,38.2l3.2-6.8h3.1l-2.2,6.5h0l0,0l-0.6,1.7c-0.3,0.8-1,1.3-1.8,1.3c-1.1,0-1.9-0.9-1.9-1.9
			C19.8,38.7,19.9,38.5,20,38.2z"/>
		<path class="st1" d="M42.5,19.7H41v-1.5c0-0.4-0.3-0.7-0.7-0.7c0,0,0,0,0,0h-2.9c-0.4,0-0.7,0.3-0.7,0.7c0,0,0,0,0,0v1.5h-1.5
			c-0.4,0-0.7,0.3-0.7,0.7c0,0,0,0,0,0v2.9c0,0.4,0.3,0.7,0.7,0.7c0,0,0,0,0,0h1.5v1.5c0,0.4,0.3,0.7,0.7,0.7c0,0,0,0,0,0h2.9
			c0.4,0,0.7-0.3,0.7-0.7c0,0,0,0,0,0v-1.5h1.5c0.4,0,0.7-0.3,0.7-0.7c0,0,0,0,0,0v-2.9C43.2,20.1,42.9,19.7,42.5,19.7
			C42.5,19.7,42.5,19.7,42.5,19.7z M41.7,22.6h-1.5c-0.4,0-0.7,0.3-0.7,0.7c0,0,0,0,0,0v1.5h-1.5v-1.5c0-0.4-0.3-0.7-0.7-0.7
			c0,0,0,0,0,0h-1.5v-1.5h1.5c0.4,0,0.7-0.3,0.7-0.7c0,0,0,0,0,0V19h1.5v1.5c0,0.4,0.3,0.7,0.7,0.7c0,0,0,0,0,0h1.5V22.6z"/>
		<circle class="st1" cx="30.8" cy="51.2" r="0.7"/>
	</g>
</g>
</svg>
