<?xml version="1.0" encoding="utf-8"?>
<!-- Generator: Adobe Illustrator 23.1.0, SVG Export Plug-In . SVG Version: 6.00 Build 0)  -->
<svg version="1.1" id="Layer_1" xmlns="http://www.w3.org/2000/svg" xmlns:xlink="http://www.w3.org/1999/xlink" x="0px" y="0px"
	 viewBox="0 0 256 256" style="enable-background:new 0 0 256 256;" xml:space="preserve">
<style type="text/css">
	.st0{fill:#F9F9F7;}
</style>
<g>
	<path class="st0" d="M171.18,74.06c0,17.16,0,34.32,0,50.3c-17.5,18.39-33.84,36.05-46.66,56.79c-3.08,4.98-9.08,8.16-14.3,12.64
		c-14.26-15.35-27.59-29.62-40.73-44.08c-0.83-0.91-0.11-3.22-0.11-5.76c8.79-6.02,17.86-12.23,25.95-17.78
		c11.47,1.24,9.78,13.62,17.6,16.92c8.36-13.01,15.91-26.2,24.89-38.34c8.82-11.91,16.6-25.31,30.62-32.11
		C169.36,73.13,170.27,73.59,171.18,74.06z M164.65,89.69c-0.88-0.48-1.76-0.96-2.63-1.45c-9.35,11.03-19.91,21.11-27.27,33.76
		c-7.28,12.51-13.68,25.53-21.32,39.94c-6.05-9.13-11.16-16.86-16.77-25.32c-5.76,3.24-10.77,6.06-15.42,8.68
		c0.4,8.68,24.18,35.21,31.09,36.13c17.25-21.31,34.3-42.39,52.32-64.66C164.65,109.1,164.65,99.39,164.65,89.69z"/>
</g>
</svg>
