<?xml version="1.0" encoding="utf-8"?>
<!-- Generator: Adobe Illustrator 22.0.0, SVG Export Plug-In . SVG Version: 6.00 Build 0)  -->
<svg version="1.2" baseProfile="tiny" id="Capa_1" xmlns="http://www.w3.org/2000/svg" xmlns:xlink="http://www.w3.org/1999/xlink"
	 x="0px" y="0px" viewBox="0 0 400 400" xml:space="preserve">
<g>
	<circle fill="#EF9105" cx="199.5" cy="200.5" r="154.8"/>
	<circle fill="none" stroke="#EF9105" stroke-miterlimit="10" cx="199.5" cy="200.5" r="197.5"/>
	<g>
		<g>
			<path fill="#FFFFFF" d="M277.4,168.5l-8.8-41.2c-1.1-5.1-5-8.6-9.4-8.6H140.8c-4.4,0-8.3,3.6-9.4,8.6l-8.8,41.2
				c-0.1,0.4-0.1,0.9-0.1,1.4c0,15.7,10.3,28.5,23,28.5c7.4,0,14-4.3,18.2-11c4.2,6.7,10.8,11,18.2,11s14-4.3,18.2-11
				c4.2,6.7,10.8,11,18.2,11s14-4.3,18.2-11c4.2,6.7,10.8,11,18.2,11c12.7,0,23-12.8,23-28.5C277.5,169.4,277.5,169,277.4,168.5z"/>
		</g>
	</g>
	<g>
		<g>
			<path fill="#FFFFFF" d="M254.5,209.7c-6.6,0-12.9-2.4-18.2-6.7c-10.6,8.7-25.7,8.7-36.3,0c-10.6,8.7-25.7,8.7-36.3,0
				c-5.3,4.3-11.6,6.7-18.2,6.7c-4.8,0-9.2-1.3-13.3-3.5v60.4c0,6.3,4.3,11.4,9.7,11.4h38.8v-45.5h38.8V278h38.8
				c5.4,0,9.7-5.1,9.7-11.4v-60.4C263.7,208.4,259.2,209.7,254.5,209.7z"/>
		</g>
	</g>
	<rect x="171.9" y="229.2" fill="#EF9105" width="60" height="50.3"/>
</g>
</svg>
