<?xml version="1.0" encoding="utf-8"?>
<!-- Generator: Adobe Illustrator 16.0.0, SVG Export Plug-In . SVG Version: 6.00 Build 0)  -->
<!DOCTYPE svg PUBLIC "-//W3C//DTD SVG 1.1//EN" "http://www.w3.org/Graphics/SVG/1.1/DTD/svg11.dtd">
<svg version="1.1" id="Capa_1" xmlns="http://www.w3.org/2000/svg" xmlns:xlink="http://www.w3.org/1999/xlink" x="0px" y="0px"
	 width="50px" height="50px" viewBox="0 0 50 50" enable-background="new 0 0 50 50" xml:space="preserve">
<path fill="#6F6F6E" d="M33.616,4.872H16.383c-6.157,0-11.164,5.095-11.164,11.363v17.534c0,6.263,5.007,11.36,11.164,11.36h17.233
	c6.159,0,11.166-5.098,11.166-11.36V16.234C44.782,9.966,39.775,4.872,33.616,4.872z"/>
<g>
	<path fill="#FFFFFF" d="M39.068,16.469c-0.923-0.369-1.806-0.553-2.65-0.553c-2.297,0-3.445,1.266-3.445,3.802v2.51h5.304
		l-0.73,5.353l-4.573,0.022l-0.004,17.526h-7.136l0.004-17.526h-3.899v-5.375h3.899v-2.924c0-2.688,0.86-4.854,2.585-6.501
		c1.719-1.645,4.061-2.464,7.023-2.464c1.448,0,2.658,0.152,3.623,0.462V16.469z"/>
</g>
</svg>
