<?xml version="1.0" encoding="utf-8"?>
<!-- Generator: Adobe Illustrator 16.0.0, SVG Export Plug-In . SVG Version: 6.00 Build 0)  -->
<!DOCTYPE svg PUBLIC "-//W3C//DTD SVG 1.1//EN" "http://www.w3.org/Graphics/SVG/1.1/DTD/svg11.dtd">
<svg version="1.1" id="Capa_1" xmlns="http://www.w3.org/2000/svg" xmlns:xlink="http://www.w3.org/1999/xlink" x="0px" y="0px"
	 width="50px" height="50px" viewBox="0 0 50 50" enable-background="new 0 0 50 50" xml:space="preserve">
<rect fill="#FFFFFF" width="50" height="50"/>
<rect x="5" y="5" fill="#FFFFFF" width="40" height="40"/>
<g>
	<path fill="#6F6F6E" d="M33.616,4.872H16.383c-6.157,0-11.164,5.095-11.164,11.363v17.534c0,6.263,5.007,11.36,11.164,11.36h17.233
		c6.159,0,11.166-5.098,11.166-11.36V16.234C44.782,9.966,39.775,4.872,33.616,4.872z"/>
	<path fill="#FFFFFF" d="M14.557,16.066c0,0-2.004,4.127,1.664,6.764c0,0-0.751,0.345-2.21-0.401c0,0-0.14,3.555,3.816,4.987
		c0,0-1.467,0.288-1.909,0.288c0,0,0.646,2.692,4.431,3.496c0,0-2.079,2.164-7.396,2.042c0,0,3.874,2.521,8.905,2.321
		c3.846-0.15,8.458-1.958,11.955-7.223c1.359-2.047,1.843-4.594,1.958-8.09c0,0,2.521-2.293,2.521-2.695l-2.408,0.63l1.604-2.694
		l-2.979,1.318c0,0-3.269-3.352-7.052-0.917c-0.374,0.241-2.588,2.192-1.99,5.388C25.467,21.282,20.004,21.856,14.557,16.066z"/>
</g>
</svg>
